<mxfile host="Electron" modified="2024-08-01T18:31:37.893Z" agent="Mozilla/5.0 (Windows NT 10.0; Win64; x64) AppleWebKit/537.36 (KHTML, like Gecko) draw.io/24.5.3 Chrome/124.0.6367.207 Electron/30.0.6 Safari/537.36" etag="bOkzltRTOQMxFjEf_o79" version="24.5.3" type="device">
  <diagram name="Página-1" id="9Joz7jIRB3x1IOAc5Sbe">
    <mxGraphModel dx="1445" dy="864" grid="1" gridSize="10" guides="1" tooltips="1" connect="1" arrows="1" fold="1" page="1" pageScale="1" pageWidth="827" pageHeight="1169" math="0" shadow="0">
      <root>
        <mxCell id="0" />
        <mxCell id="1" parent="0" />
        <mxCell id="PZTBxpY43EAd9py1Kcqx-1" style="edgeStyle=orthogonalEdgeStyle;rounded=0;orthogonalLoop=1;jettySize=auto;html=1;exitX=0.5;exitY=1;exitDx=0;exitDy=0;exitPerimeter=0;entryX=0.5;entryY=0;entryDx=0;entryDy=0;" parent="1" source="PZTBxpY43EAd9py1Kcqx-2" target="PZTBxpY43EAd9py1Kcqx-5" edge="1">
          <mxGeometry relative="1" as="geometry" />
        </mxCell>
        <mxCell id="PZTBxpY43EAd9py1Kcqx-2" value="INICIO" style="strokeWidth=2;html=1;shape=mxgraph.flowchart.start_1;whiteSpace=wrap;" parent="1" vertex="1">
          <mxGeometry x="15" y="30" width="100" height="30" as="geometry" />
        </mxCell>
        <mxCell id="PZTBxpY43EAd9py1Kcqx-3" value="FIM" style="strokeWidth=2;html=1;shape=mxgraph.flowchart.start_1;whiteSpace=wrap;" parent="1" vertex="1">
          <mxGeometry x="17.5" y="360" width="100" height="30" as="geometry" />
        </mxCell>
        <mxCell id="PZTBxpY43EAd9py1Kcqx-4" style="edgeStyle=orthogonalEdgeStyle;rounded=0;orthogonalLoop=1;jettySize=auto;html=1;exitX=0.5;exitY=1;exitDx=0;exitDy=0;" parent="1" source="PZTBxpY43EAd9py1Kcqx-5" edge="1">
          <mxGeometry relative="1" as="geometry">
            <mxPoint x="65" y="155" as="targetPoint" />
          </mxGeometry>
        </mxCell>
        <mxCell id="PZTBxpY43EAd9py1Kcqx-5" value="INICIAR" style="shape=process;whiteSpace=wrap;html=1;backgroundOutline=1;" parent="1" vertex="1">
          <mxGeometry x="12.5" y="87.5" width="110" height="30" as="geometry" />
        </mxCell>
        <mxCell id="PZTBxpY43EAd9py1Kcqx-6" style="edgeStyle=orthogonalEdgeStyle;rounded=0;orthogonalLoop=1;jettySize=auto;html=1;exitX=0.5;exitY=1;exitDx=0;exitDy=0;entryX=0.5;entryY=0;entryDx=0;entryDy=0;" parent="1" source="PZTBxpY43EAd9py1Kcqx-7" target="PZTBxpY43EAd9py1Kcqx-8" edge="1">
          <mxGeometry relative="1" as="geometry" />
        </mxCell>
        <mxCell id="PZTBxpY43EAd9py1Kcqx-7" value="PROCESSAR&lt;div&gt;até EOF&amp;nbsp;&lt;/div&gt;&lt;div&gt;de CLIENTES&lt;/div&gt;" style="shape=process;whiteSpace=wrap;html=1;backgroundOutline=1;" parent="1" vertex="1">
          <mxGeometry x="5" y="222.5" width="115" height="50" as="geometry" />
        </mxCell>
        <mxCell id="PZTBxpY43EAd9py1Kcqx-8" value="FINALIZAR" style="shape=process;whiteSpace=wrap;html=1;backgroundOutline=1;" parent="1" vertex="1">
          <mxGeometry x="10" y="295" width="110" height="30" as="geometry" />
        </mxCell>
        <mxCell id="PZTBxpY43EAd9py1Kcqx-9" style="edgeStyle=orthogonalEdgeStyle;rounded=0;orthogonalLoop=1;jettySize=auto;html=1;exitX=0.5;exitY=1;exitDx=0;exitDy=0;exitPerimeter=0;entryX=0.5;entryY=0;entryDx=0;entryDy=0;" parent="1" source="PZTBxpY43EAd9py1Kcqx-10" edge="1">
          <mxGeometry relative="1" as="geometry">
            <mxPoint x="215" y="85" as="targetPoint" />
          </mxGeometry>
        </mxCell>
        <mxCell id="PZTBxpY43EAd9py1Kcqx-10" value="INICIAR" style="strokeWidth=2;html=1;shape=mxgraph.flowchart.start_1;whiteSpace=wrap;" parent="1" vertex="1">
          <mxGeometry x="165" y="25" width="100" height="30" as="geometry" />
        </mxCell>
        <mxCell id="PZTBxpY43EAd9py1Kcqx-11" value="FIM" style="strokeWidth=2;html=1;shape=mxgraph.flowchart.start_1;whiteSpace=wrap;" parent="1" vertex="1">
          <mxGeometry x="165" y="232.5" width="100" height="30" as="geometry" />
        </mxCell>
        <mxCell id="PZTBxpY43EAd9py1Kcqx-12" style="edgeStyle=orthogonalEdgeStyle;rounded=0;orthogonalLoop=1;jettySize=auto;html=1;exitX=0.5;exitY=1;exitDx=0;exitDy=0;entryX=0.5;entryY=0;entryDx=0;entryDy=0;" parent="1" edge="1">
          <mxGeometry relative="1" as="geometry">
            <mxPoint x="215" y="125" as="sourcePoint" />
            <mxPoint x="215" y="155" as="targetPoint" />
          </mxGeometry>
        </mxCell>
        <mxCell id="PZTBxpY43EAd9py1Kcqx-13" style="edgeStyle=orthogonalEdgeStyle;rounded=0;orthogonalLoop=1;jettySize=auto;html=1;exitX=0.5;exitY=1;exitDx=0;exitDy=0;exitPerimeter=0;" parent="1" source="PZTBxpY43EAd9py1Kcqx-14" edge="1">
          <mxGeometry relative="1" as="geometry">
            <mxPoint x="835" y="105" as="targetPoint" />
          </mxGeometry>
        </mxCell>
        <mxCell id="PZTBxpY43EAd9py1Kcqx-14" value="PROCESSAR" style="strokeWidth=2;html=1;shape=mxgraph.flowchart.start_1;whiteSpace=wrap;" parent="1" vertex="1">
          <mxGeometry x="785" y="30" width="100" height="30" as="geometry" />
        </mxCell>
        <mxCell id="PZTBxpY43EAd9py1Kcqx-15" value="FIM" style="strokeWidth=2;html=1;shape=mxgraph.flowchart.start_1;whiteSpace=wrap;" parent="1" vertex="1">
          <mxGeometry x="788" y="466.25" width="100" height="20" as="geometry" />
        </mxCell>
        <mxCell id="AunwQESHML7wP98be0eB-15" value="" style="edgeStyle=orthogonalEdgeStyle;rounded=0;orthogonalLoop=1;jettySize=auto;html=1;" parent="1" source="PZTBxpY43EAd9py1Kcqx-16" target="AunwQESHML7wP98be0eB-14" edge="1">
          <mxGeometry relative="1" as="geometry" />
        </mxCell>
        <mxCell id="PZTBxpY43EAd9py1Kcqx-16" value="FINALIZAR" style="strokeWidth=2;html=1;shape=mxgraph.flowchart.start_1;whiteSpace=wrap;" parent="1" vertex="1">
          <mxGeometry x="1458" y="20" width="100" height="30" as="geometry" />
        </mxCell>
        <mxCell id="PZTBxpY43EAd9py1Kcqx-17" value="FIM" style="strokeWidth=2;html=1;shape=mxgraph.flowchart.start_1;whiteSpace=wrap;" parent="1" vertex="1">
          <mxGeometry x="1458" y="275.63" width="100" height="30" as="geometry" />
        </mxCell>
        <mxCell id="PZTBxpY43EAd9py1Kcqx-25" style="edgeStyle=orthogonalEdgeStyle;rounded=0;orthogonalLoop=1;jettySize=auto;html=1;exitX=0.5;exitY=1;exitDx=0;exitDy=0;entryX=0.5;entryY=0;entryDx=0;entryDy=0;" parent="1" source="PZTBxpY43EAd9py1Kcqx-26" edge="1">
          <mxGeometry relative="1" as="geometry">
            <mxPoint x="830" y="150" as="targetPoint" />
          </mxGeometry>
        </mxCell>
        <mxCell id="PZTBxpY43EAd9py1Kcqx-26" value="&lt;div&gt;ACUMLIDOS + 1&lt;/div&gt;" style="rounded=1;whiteSpace=wrap;html=1;absoluteArcSize=1;arcSize=14;strokeWidth=2;" parent="1" vertex="1">
          <mxGeometry x="770" y="98.75" width="130" height="36.25" as="geometry" />
        </mxCell>
        <mxCell id="PZTBxpY43EAd9py1Kcqx-27" style="edgeStyle=orthogonalEdgeStyle;rounded=0;orthogonalLoop=1;jettySize=auto;html=1;exitX=0.5;exitY=1;exitDx=0;exitDy=0;entryX=0.5;entryY=0;entryDx=0;entryDy=0;entryPerimeter=0;" parent="1" source="PZTBxpY43EAd9py1Kcqx-8" target="PZTBxpY43EAd9py1Kcqx-3" edge="1">
          <mxGeometry relative="1" as="geometry" />
        </mxCell>
        <mxCell id="PZTBxpY43EAd9py1Kcqx-28" style="edgeStyle=orthogonalEdgeStyle;rounded=0;orthogonalLoop=1;jettySize=auto;html=1;exitX=0.5;exitY=1;exitDx=0;exitDy=0;entryX=0.437;entryY=0.054;entryDx=0;entryDy=0;entryPerimeter=0;" parent="1" source="nqsEs4eczGw24UIPuGTa-6" target="PZTBxpY43EAd9py1Kcqx-59" edge="1">
          <mxGeometry relative="1" as="geometry">
            <mxPoint x="829" y="358.75" as="targetPoint" />
          </mxGeometry>
        </mxCell>
        <mxCell id="nqsEs4eczGw24UIPuGTa-4" style="edgeStyle=orthogonalEdgeStyle;rounded=0;orthogonalLoop=1;jettySize=auto;html=1;entryX=0.5;entryY=0;entryDx=0;entryDy=0;" edge="1" parent="1" source="PZTBxpY43EAd9py1Kcqx-30" target="PZTBxpY43EAd9py1Kcqx-32">
          <mxGeometry relative="1" as="geometry" />
        </mxCell>
        <mxCell id="nqsEs4eczGw24UIPuGTa-5" value="SIM" style="edgeLabel;html=1;align=center;verticalAlign=middle;resizable=0;points=[];" vertex="1" connectable="0" parent="nqsEs4eczGw24UIPuGTa-4">
          <mxGeometry x="-0.3747" y="3" relative="1" as="geometry">
            <mxPoint as="offset" />
          </mxGeometry>
        </mxCell>
        <mxCell id="PZTBxpY43EAd9py1Kcqx-30" value="QT-LINHAS &amp;gt; 12" style="rhombus;whiteSpace=wrap;html=1;" parent="1" vertex="1">
          <mxGeometry x="749" y="152.5" width="160" height="47.5" as="geometry" />
        </mxCell>
        <mxCell id="nqsEs4eczGw24UIPuGTa-8" style="edgeStyle=orthogonalEdgeStyle;rounded=0;orthogonalLoop=1;jettySize=auto;html=1;entryX=1;entryY=0.5;entryDx=0;entryDy=0;" edge="1" parent="1" source="PZTBxpY43EAd9py1Kcqx-32" target="nqsEs4eczGw24UIPuGTa-6">
          <mxGeometry relative="1" as="geometry" />
        </mxCell>
        <mxCell id="PZTBxpY43EAd9py1Kcqx-32" value="IMP-CABECALHO" style="rounded=1;whiteSpace=wrap;html=1;absoluteArcSize=1;arcSize=14;strokeWidth=2;" parent="1" vertex="1">
          <mxGeometry x="930" y="227.5" width="130" height="40" as="geometry" />
        </mxCell>
        <mxCell id="PZTBxpY43EAd9py1Kcqx-33" value="" style="ellipse;whiteSpace=wrap;html=1;aspect=fixed;" parent="1" vertex="1">
          <mxGeometry x="820" y="406.25" width="30" height="30" as="geometry" />
        </mxCell>
        <mxCell id="PZTBxpY43EAd9py1Kcqx-36" value="ABRIR&lt;div&gt;CLIENTES&lt;/div&gt;" style="rounded=1;whiteSpace=wrap;html=1;absoluteArcSize=1;arcSize=14;strokeWidth=2;" parent="1" vertex="1">
          <mxGeometry x="160" y="90" width="110" height="40" as="geometry" />
        </mxCell>
        <mxCell id="PZTBxpY43EAd9py1Kcqx-37" value="ACUMLIDOS = 0&lt;div&gt;QT-LINHAS = 0&lt;/div&gt;&lt;div&gt;WRK-PAG = 1&lt;/div&gt;" style="rounded=1;whiteSpace=wrap;html=1;absoluteArcSize=1;arcSize=14;strokeWidth=2;" parent="1" vertex="1">
          <mxGeometry x="160" y="160" width="110" height="40" as="geometry" />
        </mxCell>
        <mxCell id="PZTBxpY43EAd9py1Kcqx-38" style="edgeStyle=orthogonalEdgeStyle;rounded=0;orthogonalLoop=1;jettySize=auto;html=1;exitX=0.5;exitY=1;exitDx=0;exitDy=0;" parent="1" source="PZTBxpY43EAd9py1Kcqx-39" edge="1">
          <mxGeometry relative="1" as="geometry">
            <mxPoint x="68" y="220" as="targetPoint" />
          </mxGeometry>
        </mxCell>
        <mxCell id="PZTBxpY43EAd9py1Kcqx-39" value="VERIFICAR&lt;div&gt;VAZIO&lt;/div&gt;" style="shape=process;whiteSpace=wrap;html=1;backgroundOutline=1;" parent="1" vertex="1">
          <mxGeometry x="12.5" y="155" width="110" height="30" as="geometry" />
        </mxCell>
        <mxCell id="PZTBxpY43EAd9py1Kcqx-42" style="edgeStyle=orthogonalEdgeStyle;rounded=0;orthogonalLoop=1;jettySize=auto;html=1;exitX=0.5;exitY=1;exitDx=0;exitDy=0;exitPerimeter=0;entryX=0.5;entryY=0;entryDx=0;entryDy=0;" parent="1" source="PZTBxpY43EAd9py1Kcqx-43" target="PZTBxpY43EAd9py1Kcqx-44" edge="1">
          <mxGeometry relative="1" as="geometry" />
        </mxCell>
        <mxCell id="PZTBxpY43EAd9py1Kcqx-43" value="LER&lt;div&gt;DADOS&lt;/div&gt;" style="strokeWidth=2;html=1;shape=mxgraph.flowchart.start_1;whiteSpace=wrap;" parent="1" vertex="1">
          <mxGeometry x="590" y="30" width="100" height="30" as="geometry" />
        </mxCell>
        <mxCell id="PZTBxpY43EAd9py1Kcqx-44" value="LER&lt;div&gt;CLIENTES&lt;/div&gt;" style="shape=parallelogram;perimeter=parallelogramPerimeter;whiteSpace=wrap;html=1;fixedSize=1;" parent="1" vertex="1">
          <mxGeometry x="590" y="77.5" width="110" height="40" as="geometry" />
        </mxCell>
        <mxCell id="PZTBxpY43EAd9py1Kcqx-45" value="FIM" style="strokeWidth=2;html=1;shape=mxgraph.flowchart.start_1;whiteSpace=wrap;" parent="1" vertex="1">
          <mxGeometry x="600" y="143.75" width="100" height="30" as="geometry" />
        </mxCell>
        <mxCell id="PZTBxpY43EAd9py1Kcqx-55" style="edgeStyle=orthogonalEdgeStyle;rounded=0;orthogonalLoop=1;jettySize=auto;html=1;exitX=0.5;exitY=1;exitDx=0;exitDy=0;" parent="1" source="PZTBxpY43EAd9py1Kcqx-44" edge="1">
          <mxGeometry relative="1" as="geometry">
            <mxPoint x="645" y="140" as="targetPoint" />
          </mxGeometry>
        </mxCell>
        <mxCell id="PZTBxpY43EAd9py1Kcqx-57" style="edgeStyle=orthogonalEdgeStyle;rounded=0;orthogonalLoop=1;jettySize=auto;html=1;exitX=0.5;exitY=1;exitDx=0;exitDy=0;entryX=0.5;entryY=0;entryDx=0;entryDy=0;entryPerimeter=0;" parent="1" source="PZTBxpY43EAd9py1Kcqx-37" target="PZTBxpY43EAd9py1Kcqx-11" edge="1">
          <mxGeometry relative="1" as="geometry" />
        </mxCell>
        <mxCell id="PZTBxpY43EAd9py1Kcqx-58" style="edgeStyle=orthogonalEdgeStyle;rounded=0;orthogonalLoop=1;jettySize=auto;html=1;exitX=0.5;exitY=1;exitDx=0;exitDy=0;entryX=0.5;entryY=0;entryDx=0;entryDy=0;" parent="1" source="PZTBxpY43EAd9py1Kcqx-59" target="PZTBxpY43EAd9py1Kcqx-62" edge="1">
          <mxGeometry relative="1" as="geometry" />
        </mxCell>
        <mxCell id="PZTBxpY43EAd9py1Kcqx-59" value="IMP-DETALHE" style="rounded=1;whiteSpace=wrap;html=1;absoluteArcSize=1;arcSize=14;strokeWidth=2;" parent="1" vertex="1">
          <mxGeometry x="773" y="291.25" width="130" height="40" as="geometry" />
        </mxCell>
        <mxCell id="PZTBxpY43EAd9py1Kcqx-60" style="edgeStyle=orthogonalEdgeStyle;rounded=0;orthogonalLoop=1;jettySize=auto;html=1;exitX=0.5;exitY=1;exitDx=0;exitDy=0;entryX=0.5;entryY=0;entryDx=0;entryDy=0;" parent="1" source="PZTBxpY43EAd9py1Kcqx-62" target="PZTBxpY43EAd9py1Kcqx-33" edge="1">
          <mxGeometry relative="1" as="geometry" />
        </mxCell>
        <mxCell id="nqsEs4eczGw24UIPuGTa-2" style="edgeStyle=orthogonalEdgeStyle;rounded=0;orthogonalLoop=1;jettySize=auto;html=1;entryX=0;entryY=0.5;entryDx=0;entryDy=0;exitX=0;exitY=0.5;exitDx=0;exitDy=0;" edge="1" parent="1" source="PZTBxpY43EAd9py1Kcqx-62" target="PZTBxpY43EAd9py1Kcqx-26">
          <mxGeometry relative="1" as="geometry">
            <Array as="points">
              <mxPoint x="720" y="361" />
              <mxPoint x="720" y="117" />
            </Array>
          </mxGeometry>
        </mxCell>
        <mxCell id="PZTBxpY43EAd9py1Kcqx-62" value="LER DADOS" style="shape=process;whiteSpace=wrap;html=1;backgroundOutline=1;" parent="1" vertex="1">
          <mxGeometry x="780" y="346.25" width="110" height="30" as="geometry" />
        </mxCell>
        <mxCell id="PZTBxpY43EAd9py1Kcqx-63" style="edgeStyle=orthogonalEdgeStyle;rounded=0;orthogonalLoop=1;jettySize=auto;html=1;exitX=0.5;exitY=1;exitDx=0;exitDy=0;entryX=0.5;entryY=0;entryDx=0;entryDy=0;entryPerimeter=0;" parent="1" source="PZTBxpY43EAd9py1Kcqx-33" target="PZTBxpY43EAd9py1Kcqx-15" edge="1">
          <mxGeometry relative="1" as="geometry" />
        </mxCell>
        <mxCell id="PZTBxpY43EAd9py1Kcqx-64" value="IMP-CABECALHO" style="strokeWidth=2;html=1;shape=mxgraph.flowchart.start_1;whiteSpace=wrap;" parent="1" vertex="1">
          <mxGeometry x="1090" y="25" width="130" height="30" as="geometry" />
        </mxCell>
        <mxCell id="PZTBxpY43EAd9py1Kcqx-65" style="edgeStyle=orthogonalEdgeStyle;rounded=0;orthogonalLoop=1;jettySize=auto;html=1;exitX=0.5;exitY=1;exitDx=0;exitDy=0;exitPerimeter=0;entryX=0.5;entryY=0;entryDx=0;entryDy=0;" parent="1" source="eKldjDe3g-RdCaJVngPj-1" target="PZTBxpY43EAd9py1Kcqx-68" edge="1">
          <mxGeometry relative="1" as="geometry" />
        </mxCell>
        <mxCell id="PZTBxpY43EAd9py1Kcqx-66" value="CABECALHO" style="strokeWidth=2;html=1;shape=mxgraph.flowchart.display;whiteSpace=wrap;" parent="1" vertex="1">
          <mxGeometry x="1100" y="73.75" width="110" height="30" as="geometry" />
        </mxCell>
        <mxCell id="nqsEs4eczGw24UIPuGTa-1" value="" style="edgeStyle=orthogonalEdgeStyle;rounded=0;orthogonalLoop=1;jettySize=auto;html=1;" edge="1" parent="1" source="PZTBxpY43EAd9py1Kcqx-68" target="PZTBxpY43EAd9py1Kcqx-77">
          <mxGeometry relative="1" as="geometry" />
        </mxCell>
        <mxCell id="PZTBxpY43EAd9py1Kcqx-68" value="MOVER 4 TO QT-LINHAS" style="rounded=1;whiteSpace=wrap;html=1;absoluteArcSize=1;arcSize=14;strokeWidth=2;" parent="1" vertex="1">
          <mxGeometry x="1090" y="196.25" width="130" height="36.25" as="geometry" />
        </mxCell>
        <mxCell id="PZTBxpY43EAd9py1Kcqx-69" style="edgeStyle=orthogonalEdgeStyle;rounded=0;orthogonalLoop=1;jettySize=auto;html=1;exitX=0.5;exitY=1;exitDx=0;exitDy=0;exitPerimeter=0;entryX=0.5;entryY=0;entryDx=0;entryDy=0;" parent="1" source="PZTBxpY43EAd9py1Kcqx-70" target="PZTBxpY43EAd9py1Kcqx-75" edge="1">
          <mxGeometry relative="1" as="geometry" />
        </mxCell>
        <mxCell id="PZTBxpY43EAd9py1Kcqx-70" value="IMP-DETALHE" style="strokeWidth=2;html=1;shape=mxgraph.flowchart.start_1;whiteSpace=wrap;" parent="1" vertex="1">
          <mxGeometry x="1270" y="20" width="130" height="30" as="geometry" />
        </mxCell>
        <mxCell id="PZTBxpY43EAd9py1Kcqx-71" style="edgeStyle=orthogonalEdgeStyle;rounded=0;orthogonalLoop=1;jettySize=auto;html=1;exitX=0.5;exitY=1;exitDx=0;exitDy=0;exitPerimeter=0;entryX=0.5;entryY=0;entryDx=0;entryDy=0;" parent="1" source="PZTBxpY43EAd9py1Kcqx-72" target="PZTBxpY43EAd9py1Kcqx-74" edge="1">
          <mxGeometry relative="1" as="geometry" />
        </mxCell>
        <mxCell id="PZTBxpY43EAd9py1Kcqx-72" value="DETALHE" style="strokeWidth=2;html=1;shape=mxgraph.flowchart.display;whiteSpace=wrap;" parent="1" vertex="1">
          <mxGeometry x="1280" y="123.75" width="110" height="30" as="geometry" />
        </mxCell>
        <mxCell id="PZTBxpY43EAd9py1Kcqx-73" style="edgeStyle=orthogonalEdgeStyle;rounded=0;orthogonalLoop=1;jettySize=auto;html=1;exitX=0.5;exitY=1;exitDx=0;exitDy=0;" parent="1" source="PZTBxpY43EAd9py1Kcqx-74" edge="1">
          <mxGeometry relative="1" as="geometry">
            <mxPoint x="1335" y="240" as="targetPoint" />
          </mxGeometry>
        </mxCell>
        <mxCell id="PZTBxpY43EAd9py1Kcqx-74" value="QT-LINHAS + 1" style="rounded=1;whiteSpace=wrap;html=1;absoluteArcSize=1;arcSize=14;strokeWidth=2;" parent="1" vertex="1">
          <mxGeometry x="1270" y="173.75" width="130" height="36.25" as="geometry" />
        </mxCell>
        <mxCell id="PZTBxpY43EAd9py1Kcqx-75" value="MOVE CLIENTES&lt;div&gt;PARA DETAHLE&lt;/div&gt;" style="rounded=1;whiteSpace=wrap;html=1;absoluteArcSize=1;arcSize=14;strokeWidth=2;" parent="1" vertex="1">
          <mxGeometry x="1270" y="68.75" width="130" height="36.25" as="geometry" />
        </mxCell>
        <mxCell id="PZTBxpY43EAd9py1Kcqx-76" style="edgeStyle=orthogonalEdgeStyle;rounded=0;orthogonalLoop=1;jettySize=auto;html=1;exitX=0.5;exitY=1;exitDx=0;exitDy=0;" parent="1" source="PZTBxpY43EAd9py1Kcqx-74" target="PZTBxpY43EAd9py1Kcqx-74" edge="1">
          <mxGeometry relative="1" as="geometry" />
        </mxCell>
        <mxCell id="PZTBxpY43EAd9py1Kcqx-77" value="FIM" style="strokeWidth=2;html=1;shape=mxgraph.flowchart.start_1;whiteSpace=wrap;" parent="1" vertex="1">
          <mxGeometry x="1105" y="275" width="100" height="20" as="geometry" />
        </mxCell>
        <mxCell id="PZTBxpY43EAd9py1Kcqx-78" value="FIM" style="strokeWidth=2;html=1;shape=mxgraph.flowchart.start_1;whiteSpace=wrap;" parent="1" vertex="1">
          <mxGeometry x="1285" y="242.5" width="100" height="20" as="geometry" />
        </mxCell>
        <mxCell id="PZTBxpY43EAd9py1Kcqx-79" style="edgeStyle=orthogonalEdgeStyle;rounded=0;orthogonalLoop=1;jettySize=auto;html=1;exitX=0.5;exitY=1;exitDx=0;exitDy=0;exitPerimeter=0;entryX=0.5;entryY=0;entryDx=0;entryDy=0;entryPerimeter=0;" parent="1" source="PZTBxpY43EAd9py1Kcqx-64" target="PZTBxpY43EAd9py1Kcqx-66" edge="1">
          <mxGeometry relative="1" as="geometry" />
        </mxCell>
        <mxCell id="PZTBxpY43EAd9py1Kcqx-80" style="edgeStyle=orthogonalEdgeStyle;rounded=0;orthogonalLoop=1;jettySize=auto;html=1;exitX=0.5;exitY=1;exitDx=0;exitDy=0;entryX=0.5;entryY=0;entryDx=0;entryDy=0;entryPerimeter=0;" parent="1" source="PZTBxpY43EAd9py1Kcqx-75" target="PZTBxpY43EAd9py1Kcqx-72" edge="1">
          <mxGeometry relative="1" as="geometry" />
        </mxCell>
        <mxCell id="eKldjDe3g-RdCaJVngPj-2" value="" style="edgeStyle=orthogonalEdgeStyle;rounded=0;orthogonalLoop=1;jettySize=auto;html=1;exitX=0.5;exitY=1;exitDx=0;exitDy=0;exitPerimeter=0;entryX=0.5;entryY=0;entryDx=0;entryDy=0;" parent="1" source="PZTBxpY43EAd9py1Kcqx-66" target="eKldjDe3g-RdCaJVngPj-1" edge="1">
          <mxGeometry relative="1" as="geometry">
            <mxPoint x="1155" y="104" as="sourcePoint" />
            <mxPoint x="1155" y="176" as="targetPoint" />
          </mxGeometry>
        </mxCell>
        <mxCell id="eKldjDe3g-RdCaJVngPj-1" value="MOVER 1 TO WRK-PAG" style="rounded=1;whiteSpace=wrap;html=1;absoluteArcSize=1;arcSize=14;strokeWidth=2;" parent="1" vertex="1">
          <mxGeometry x="1090" y="130" width="130" height="36.25" as="geometry" />
        </mxCell>
        <mxCell id="nqsEs4eczGw24UIPuGTa-10" value="" style="edgeStyle=orthogonalEdgeStyle;rounded=0;orthogonalLoop=1;jettySize=auto;html=1;" edge="1" parent="1" source="AunwQESHML7wP98be0eB-14" target="AunwQESHML7wP98be0eB-16">
          <mxGeometry relative="1" as="geometry" />
        </mxCell>
        <mxCell id="AunwQESHML7wP98be0eB-14" value="FECHAR&lt;div&gt;CLIENTES&lt;/div&gt;" style="shape=parallelogram;perimeter=parallelogramPerimeter;whiteSpace=wrap;html=1;fixedSize=1;" parent="1" vertex="1">
          <mxGeometry x="1448" y="77.5" width="120" height="40" as="geometry" />
        </mxCell>
        <mxCell id="AunwQESHML7wP98be0eB-18" value="" style="edgeStyle=orthogonalEdgeStyle;rounded=0;orthogonalLoop=1;jettySize=auto;html=1;" parent="1" target="PZTBxpY43EAd9py1Kcqx-17" edge="1">
          <mxGeometry relative="1" as="geometry">
            <mxPoint x="1508" y="226.88" as="sourcePoint" />
          </mxGeometry>
        </mxCell>
        <mxCell id="nqsEs4eczGw24UIPuGTa-7" value="" style="edgeStyle=orthogonalEdgeStyle;rounded=0;orthogonalLoop=1;jettySize=auto;html=1;exitX=0.5;exitY=1;exitDx=0;exitDy=0;entryX=0.437;entryY=0.054;entryDx=0;entryDy=0;entryPerimeter=0;" edge="1" parent="1" source="PZTBxpY43EAd9py1Kcqx-30" target="nqsEs4eczGw24UIPuGTa-6">
          <mxGeometry relative="1" as="geometry">
            <mxPoint x="830" y="293" as="targetPoint" />
            <mxPoint x="829" y="200" as="sourcePoint" />
          </mxGeometry>
        </mxCell>
        <mxCell id="nqsEs4eczGw24UIPuGTa-6" value="" style="ellipse;whiteSpace=wrap;html=1;aspect=fixed;" vertex="1" parent="1">
          <mxGeometry x="814" y="232.5" width="30" height="30" as="geometry" />
        </mxCell>
        <mxCell id="AunwQESHML7wP98be0eB-16" value="ACUMLIDOS&lt;span style=&quot;background-color: initial; color: rgba(0, 0, 0, 0); font-family: monospace; font-size: 0px; text-align: start; text-wrap: nowrap;&quot;&gt;%3CmxGraphModel%3E%3Croot%3E%3CmxCell%20id%3D%220%22%2F%3E%3CmxCell%20id%3D%221%22%20parent%3D%220%22%2F%3E%3CmxCell%20id%3D%222%22%20value%3D%22LIDOS%26lt%3Bdiv%26gt%3BVALIDOS%26lt%3B%2Fdiv%26gt%3B%22%20style%3D%22strokeWidth%3D2%3Bhtml%3D1%3Bshape%3Dmxgraph.flowchart.display%3BwhiteSpace%3Dwrap%3B%22%20vertex%3D%221%22%20parent%3D%221%22%3E%3CmxGeometry%20x%3D%221034%22%20y%3D%2288.75%22%20width%3D%22100%22%20height%3D%2235%22%20as%3D%22geometry%22%2F%3E%3C%2FmxCell%3E%3C%2Froot%3E%3C%2FmxGraphModel%3ECONSCOMNSCONSCONCONS&lt;/span&gt;" style="strokeWidth=2;html=1;shape=mxgraph.flowchart.display;whiteSpace=wrap;" parent="1" vertex="1">
          <mxGeometry x="1440" y="176.25" width="136" height="51.25" as="geometry" />
        </mxCell>
        <mxCell id="nqsEs4eczGw24UIPuGTa-11" style="edgeStyle=orthogonalEdgeStyle;rounded=0;orthogonalLoop=1;jettySize=auto;html=1;exitX=0.5;exitY=1;exitDx=0;exitDy=0;exitPerimeter=0;entryX=0.5;entryY=0;entryDx=0;entryDy=0;" edge="1" parent="1" source="nqsEs4eczGw24UIPuGTa-12" target="nqsEs4eczGw24UIPuGTa-15">
          <mxGeometry relative="1" as="geometry" />
        </mxCell>
        <mxCell id="nqsEs4eczGw24UIPuGTa-12" value="VERIFICAR&lt;div&gt;VAZIO&lt;/div&gt;" style="strokeWidth=2;html=1;shape=mxgraph.flowchart.start_1;whiteSpace=wrap;" vertex="1" parent="1">
          <mxGeometry x="325" y="25" width="100" height="43.75" as="geometry" />
        </mxCell>
        <mxCell id="nqsEs4eczGw24UIPuGTa-13" value="FIM" style="strokeWidth=2;html=1;shape=mxgraph.flowchart.start_1;whiteSpace=wrap;" vertex="1" parent="1">
          <mxGeometry x="325" y="412.5" width="100" height="30" as="geometry" />
        </mxCell>
        <mxCell id="nqsEs4eczGw24UIPuGTa-14" style="edgeStyle=orthogonalEdgeStyle;rounded=0;orthogonalLoop=1;jettySize=auto;html=1;exitX=0.5;exitY=1;exitDx=0;exitDy=0;entryX=0.5;entryY=0;entryDx=0;entryDy=0;" edge="1" parent="1" source="nqsEs4eczGw24UIPuGTa-15" target="nqsEs4eczGw24UIPuGTa-16">
          <mxGeometry relative="1" as="geometry" />
        </mxCell>
        <mxCell id="nqsEs4eczGw24UIPuGTa-15" value="LER DADOS" style="shape=process;whiteSpace=wrap;html=1;backgroundOutline=1;" vertex="1" parent="1">
          <mxGeometry x="320" y="98.75" width="110" height="30" as="geometry" />
        </mxCell>
        <mxCell id="nqsEs4eczGw24UIPuGTa-16" value="EOF" style="rhombus;whiteSpace=wrap;html=1;" vertex="1" parent="1">
          <mxGeometry x="335" y="138.75" width="80" height="80" as="geometry" />
        </mxCell>
        <mxCell id="nqsEs4eczGw24UIPuGTa-17" value="ARQUIVO&amp;nbsp;&lt;div&gt;CLIENTES&lt;div&gt;VAZIO&lt;/div&gt;&lt;/div&gt;" style="strokeWidth=2;html=1;shape=mxgraph.flowchart.display;whiteSpace=wrap;" vertex="1" parent="1">
          <mxGeometry x="455" y="148.75" width="100" height="60" as="geometry" />
        </mxCell>
        <mxCell id="nqsEs4eczGw24UIPuGTa-18" style="edgeStyle=orthogonalEdgeStyle;rounded=0;orthogonalLoop=1;jettySize=auto;html=1;exitX=1;exitY=0.5;exitDx=0;exitDy=0;entryX=0;entryY=0.5;entryDx=0;entryDy=0;entryPerimeter=0;" edge="1" parent="1" source="nqsEs4eczGw24UIPuGTa-16" target="nqsEs4eczGw24UIPuGTa-17">
          <mxGeometry relative="1" as="geometry" />
        </mxCell>
        <mxCell id="nqsEs4eczGw24UIPuGTa-19" value="S" style="edgeLabel;html=1;align=center;verticalAlign=middle;resizable=0;points=[];" connectable="0" vertex="1" parent="nqsEs4eczGw24UIPuGTa-18">
          <mxGeometry x="-0.1213" y="1" relative="1" as="geometry">
            <mxPoint as="offset" />
          </mxGeometry>
        </mxCell>
        <mxCell id="nqsEs4eczGw24UIPuGTa-20" value="" style="verticalLabelPosition=bottom;verticalAlign=top;html=1;shape=mxgraph.flowchart.on-page_reference;" vertex="1" parent="1">
          <mxGeometry x="365" y="330" width="20" height="20" as="geometry" />
        </mxCell>
        <mxCell id="nqsEs4eczGw24UIPuGTa-21" style="edgeStyle=orthogonalEdgeStyle;rounded=0;orthogonalLoop=1;jettySize=auto;html=1;exitX=0.5;exitY=1;exitDx=0;exitDy=0;entryX=0.5;entryY=0;entryDx=0;entryDy=0;entryPerimeter=0;" edge="1" parent="1" target="nqsEs4eczGw24UIPuGTa-20">
          <mxGeometry relative="1" as="geometry">
            <mxPoint x="370.0000000000002" y="295" as="sourcePoint" />
          </mxGeometry>
        </mxCell>
        <mxCell id="nqsEs4eczGw24UIPuGTa-22" style="edgeStyle=orthogonalEdgeStyle;rounded=0;orthogonalLoop=1;jettySize=auto;html=1;exitX=0.5;exitY=1;exitDx=0;exitDy=0;exitPerimeter=0;entryX=0.5;entryY=0;entryDx=0;entryDy=0;entryPerimeter=0;" edge="1" parent="1" source="nqsEs4eczGw24UIPuGTa-20" target="nqsEs4eczGw24UIPuGTa-13">
          <mxGeometry relative="1" as="geometry" />
        </mxCell>
        <mxCell id="nqsEs4eczGw24UIPuGTa-23" style="edgeStyle=orthogonalEdgeStyle;rounded=0;orthogonalLoop=1;jettySize=auto;html=1;exitX=0.5;exitY=1;exitDx=0;exitDy=0;exitPerimeter=0;entryX=1;entryY=0.5;entryDx=0;entryDy=0;entryPerimeter=0;" edge="1" parent="1" source="nqsEs4eczGw24UIPuGTa-17" target="nqsEs4eczGw24UIPuGTa-20">
          <mxGeometry relative="1" as="geometry" />
        </mxCell>
        <mxCell id="nqsEs4eczGw24UIPuGTa-24" value="" style="edgeStyle=orthogonalEdgeStyle;rounded=0;orthogonalLoop=1;jettySize=auto;html=1;exitX=0.5;exitY=1;exitDx=0;exitDy=0;entryX=0.5;entryY=0;entryDx=0;entryDy=0;entryPerimeter=0;" edge="1" parent="1" source="nqsEs4eczGw24UIPuGTa-16">
          <mxGeometry relative="1" as="geometry">
            <mxPoint x="375" y="218.5" as="sourcePoint" />
            <mxPoint x="370.0000000000002" y="255" as="targetPoint" />
          </mxGeometry>
        </mxCell>
        <mxCell id="nqsEs4eczGw24UIPuGTa-25" value="N" style="edgeLabel;html=1;align=center;verticalAlign=middle;resizable=0;points=[];" connectable="0" vertex="1" parent="nqsEs4eczGw24UIPuGTa-24">
          <mxGeometry x="-0.2522" y="1" relative="1" as="geometry">
            <mxPoint as="offset" />
          </mxGeometry>
        </mxCell>
        <mxCell id="nqsEs4eczGw24UIPuGTa-26" value="IMP-CABECALHO" style="shape=process;whiteSpace=wrap;html=1;backgroundOutline=1;" vertex="1" parent="1">
          <mxGeometry x="310" y="253.13" width="120" height="60" as="geometry" />
        </mxCell>
      </root>
    </mxGraphModel>
  </diagram>
</mxfile>
